HIERARCHY
ROOT Hips
{
  OFFSET 363.916 89.4436 202.859
  CHANNELS 6 Xposition Yposition Zposition Zrotation Xrotation Yrotation
  JOINT RightUpLeg
  {
    OFFSET -9.22681 -1.41939 0.059526
    CHANNELS 3 Zrotation Xrotation Yrotation
    JOINT RightLeg
    {
      OFFSET 0.076897 -41.8891 0.179098
      CHANNELS 3 Zrotation Xrotation Yrotation
      JOINT RightFoot
      {
        OFFSET -0.0130714 -43.0092 0.527065
        CHANNELS 3 Zrotation Xrotation Yrotation
        End Site
        {
          OFFSET 0 -7.69 17.5
        }
      }
    }
  }
  JOINT LeftUpLeg
  {
    OFFSET 9.19333 -1.7604 -0.077889
    CHANNELS 3 Zrotation Xrotation Yrotation
    JOINT LeftLeg
    {
      OFFSET -0.0291634 -41.859 -0.15197
      CHANNELS 3 Zrotation Xrotation Yrotation
      JOINT LeftFoot
      {
        OFFSET 0.141288 -40.5593 0.458407
        CHANNELS 3 Zrotation Xrotation Yrotation
        End Site
        {
          OFFSET 0 -7.69 17.5
        }
      }
    }
  }
  JOINT Spine
  {
    OFFSET 0.215607 14.2961 0.04713
    CHANNELS 3 Zrotation Xrotation Yrotation
    JOINT Spine1
    {
      OFFSET 0.127345 9.70675 0.00151561
      CHANNELS 3 Zrotation Xrotation Yrotation
      JOINT Spine2
      {
        OFFSET 0.0493166 10.1169 -0.00299987
        CHANNELS 3 Zrotation Xrotation Yrotation
        JOINT Spine3
        {
          OFFSET 0.0599611 9.70888 0.0197622
          CHANNELS 3 Zrotation Xrotation Yrotation
          JOINT Neck
          {
            OFFSET 0.305156 10.372 0.0704915
            CHANNELS 3 Zrotation Xrotation Yrotation
            JOINT Head
            {
              OFFSET 0.288394 9.47974 0.0406202
              CHANNELS 3 Zrotation Xrotation Yrotation
              End Site
              {
                OFFSET 0 15.95 0
              }
            }
          }
          JOINT RightShoulder
          {
            OFFSET -3.14873 6.92098 0.0285763
            CHANNELS 3 Zrotation Xrotation Yrotation
            JOINT RightArm
            {
              OFFSET -12.7049 -0.00288304 0.0369593
              CHANNELS 3 Zrotation Xrotation Yrotation
              JOINT RightForeArm
              {
                OFFSET -26.4954 -0.160471 0.0134548
                CHANNELS 3 Zrotation Xrotation Yrotation
                JOINT RightHand
                {
                  OFFSET -26.0026 -0.0211725 -0.0218708
                  CHANNELS 3 Zrotation Xrotation Yrotation
                  JOINT RightHandThumb1
                  {
                    OFFSET -2.48905 0.190105 3.12053
                    CHANNELS 3 Zrotation Xrotation Yrotation
                    JOINT RightHandThumb2
                    {
                      OFFSET -3.68274 0 0
                      CHANNELS 3 Zrotation Xrotation Yrotation
                      JOINT RightHandThumb3
                      {
                        OFFSET -2.55832 0 0
                        CHANNELS 3 Zrotation Xrotation Yrotation
                        End Site
                        {
                          OFFSET -2.194 0 0
                        }
                      }
                    }
                  }
                  JOINT RightInHandIndex
                  {
                    OFFSET -3.22368 0.508421 1.97842
                    CHANNELS 3 Zrotation Xrotation Yrotation
                    JOINT RightHandIndex1
                    {
                      OFFSET -5.21684 -0.091368 0.999158
                      CHANNELS 3 Zrotation Xrotation Yrotation
                      JOINT RightHandIndex2
                      {
                        OFFSET -3.61937 0 0
                        CHANNELS 3 Zrotation Xrotation Yrotation
                        JOINT RightHandIndex3
                        {
                          OFFSET -2.0521 0 0
                          CHANNELS 3 Zrotation Xrotation Yrotation
                          End Site
                          {
                            OFFSET -1.805 0 0
                          }
                        }
                      }
                    }
                  }
                  JOINT RightInHandMiddle
                  {
                    OFFSET -3.38211 0.517263 0.756737
                    CHANNELS 3 Zrotation Xrotation Yrotation
                    JOINT RightHandMiddle1
                    {
                      OFFSET -5.17411 -0.084 0.313895
                      CHANNELS 3 Zrotation Xrotation Yrotation
                      JOINT RightHandMiddle2
                      {
                        OFFSET -3.94947 0 0
                        CHANNELS 3 Zrotation Xrotation Yrotation
                        JOINT RightHandMiddle3
                        {
                          OFFSET -2.47579 0 0
                          CHANNELS 3 Zrotation Xrotation Yrotation
                          End Site
                          {
                            OFFSET -1.975 0 0
                          }
                        }
                      }
                    }
                  }
                  JOINT RightInHandRing
                  {
                    OFFSET -3.36516 0.537895 -0.128947
                    CHANNELS 3 Zrotation Xrotation Yrotation
                    JOINT RightHandRing1
                    {
                      OFFSET -4.63474 -0.022105 -0.478947
                      CHANNELS 3 Zrotation Xrotation Yrotation
                      JOINT RightHandRing2
                      {
                        OFFSET -3.44238 0 0
                        CHANNELS 3 Zrotation Xrotation Yrotation
                        JOINT RightHandRing3
                        {
                          OFFSET -2.3881 0 0
                          CHANNELS 3 Zrotation Xrotation Yrotation
                          End Site
                          {
                            OFFSET -1.857 0 0
                          }
                        }
                      }
                    }
                  }
                  JOINT RightInHandPinky
                  {
                    OFFSET -3.16105 0.469368 -1.20179
                    CHANNELS 3 Zrotation Xrotation Yrotation
                    JOINT RightHandPinky1
                    {
                      OFFSET -4.14105 -0.022105 -1.09053
                      CHANNELS 3 Zrotation Xrotation Yrotation
                      JOINT RightHandPinky2
                      {
                        OFFSET -2.75653 0 0
                        CHANNELS 3 Zrotation Xrotation Yrotation
                        JOINT RightHandPinky3
                        {
                          OFFSET -1.74189 0 0
                          CHANNELS 3 Zrotation Xrotation Yrotation
                          End Site
                          {
                            OFFSET -1.645 0 0
                          }
                        }
                      }
                    }
                  }
                }
              }
            }
          }
          JOINT LeftShoulder
          {
            OFFSET 3.26342 6.92519 -0.0174379
            CHANNELS 3 Zrotation Xrotation Yrotation
            JOINT LeftArm
            {
              OFFSET 12.8742 -0.0269705 -0.0666419
              CHANNELS 3 Zrotation Xrotation Yrotation
              JOINT LeftForeArm
              {
                OFFSET 26.5114 0.000826062 -0.052783
                CHANNELS 3 Zrotation Xrotation Yrotation
                JOINT LeftHand
                {
                  OFFSET 25.9941 -0.0689373 0.00603348
                  CHANNELS 3 Zrotation Xrotation Yrotation
                  JOINT LeftHandThumb1
                  {
                    OFFSET 2.48905 0.190105 3.12053
                    CHANNELS 3 Zrotation Xrotation Yrotation
                    JOINT LeftHandThumb2
                    {
                      OFFSET 3.68274 0 0
                      CHANNELS 3 Zrotation Xrotation Yrotation
                      JOINT LeftHandThumb3
                      {
                        OFFSET 2.55832 0 0
                        CHANNELS 3 Zrotation Xrotation Yrotation
                        End Site
                        {
                          OFFSET 2.194 0 0
                        }
                      }
                    }
                  }
                  JOINT LeftInHandIndex
                  {
                    OFFSET 3.22368 0.508421 1.97842
                    CHANNELS 3 Zrotation Xrotation Yrotation
                    JOINT LeftHandIndex1
                    {
                      OFFSET 5.21684 -0.091368 0.999158
                      CHANNELS 3 Zrotation Xrotation Yrotation
                      JOINT LeftHandIndex2
                      {
                        OFFSET 3.61937 0 0
                        CHANNELS 3 Zrotation Xrotation Yrotation
                        JOINT LeftHandIndex3
                        {
                          OFFSET 2.0521 0 0
                          CHANNELS 3 Zrotation Xrotation Yrotation
                          End Site
                          {
                            OFFSET 1.805 0 0
                          }
                        }
                      }
                    }
                  }
                  JOINT LeftInHandMiddle
                  {
                    OFFSET 3.38211 0.517263 0.756737
                    CHANNELS 3 Zrotation Xrotation Yrotation
                    JOINT LeftHandMiddle1
                    {
                      OFFSET 5.17411 -0.084 0.313895
                      CHANNELS 3 Zrotation Xrotation Yrotation
                      JOINT LeftHandMiddle2
                      {
                        OFFSET 3.94947 0 0
                        CHANNELS 3 Zrotation Xrotation Yrotation
                        JOINT LeftHandMiddle3
                        {
                          OFFSET 2.47579 0 0
                          CHANNELS 3 Zrotation Xrotation Yrotation
                          End Site
                          {
                            OFFSET 1.975 0 0
                          }
                        }
                      }
                    }
                  }
                  JOINT LeftInHandRing
                  {
                    OFFSET 3.36516 0.537895 -0.128947
                    CHANNELS 3 Zrotation Xrotation Yrotation
                    JOINT LeftHandRing1
                    {
                      OFFSET 4.63474 -0.022105 -0.478947
                      CHANNELS 3 Zrotation Xrotation Yrotation
                      JOINT LeftHandRing2
                      {
                        OFFSET 3.44238 0 0
                        CHANNELS 3 Zrotation Xrotation Yrotation
                        JOINT LeftHandRing3
                        {
                          OFFSET 2.3881 0 0
                          CHANNELS 3 Zrotation Xrotation Yrotation
                          End Site
                          {
                            OFFSET 1.857 0 0
                          }
                        }
                      }
                    }
                  }
                  JOINT LeftInHandPinky
                  {
                    OFFSET 3.16105 0.469368 -1.20179
                    CHANNELS 3 Zrotation Xrotation Yrotation
                    JOINT LeftHandPinky1
                    {
                      OFFSET 4.14105 -0.022105 -1.09053
                      CHANNELS 3 Zrotation Xrotation Yrotation
                      JOINT LeftHandPinky2
                      {
                        OFFSET 2.75653 0 0
                        CHANNELS 3 Zrotation Xrotation Yrotation
                        JOINT LeftHandPinky3
                        {
                          OFFSET 1.74189 0 0
                          CHANNELS 3 Zrotation Xrotation Yrotation
                          End Site
                          {
                            OFFSET 1.645 0 0
                          }
                        }
                      }
                    }
                  }
                }
              }
            }
          }
        }
      }
    }
  }
}
MOTION
Frames:	5
Frame Time:	0.00833333
363.916 89.4436 202.859 24.5503 10.5627 -75.1569 -8.9471 -51.4581 -5.32348 -3.57278 22.3018 -14.8936 10.2431 6.19237 29.5262 13.4335 -42.259 0.537135 -1.49198 34.9327 6.18625 -8.11104 -16.5264 -12.5223 -5.54787 15.493 11.7328 -1.08566 3.8304 2.77929 -1.82589 6.06086 4.59206 -0.392146 -0.371469 -0.13618 -0.392623 -0.372346 -0.134226 -7.24233 -6.92114 -2.32688 1.25818 -13.5428 19.5213 85.2935 -0.380543 48.9504 12.1719 -50.9073 1.76668 19.9072 -14.4393 -12.128 28.184 10.7294 19.1592 -1.40204e-16 -7.95139e-16 -10 -1.38298e-14 -5.1684e-15 -10 -3.18055e-15 6.16232e-15 1.98785e-16 19.9818 0.871897 2.3964 24 -1.28348e-14 -2.13197e-14 20 -2.28751e-13 -1.3006e-12 -3.18055e-15 6.16232e-15 1.98785e-16 20 3.18055e-15 2.78299e-15 24 -1.25343e-14 -1.03368e-14 20 -6.64935e-14 -3.598e-13 -3.18055e-15 6.16232e-15 1.98785e-16 19.9748 -1.02565 -2.81938 24 5.09386e-15 -1.27222e-14 20 -4.67144e-14 -2.25024e-13 -3.18055e-15 6.16232e-15 1.98785e-16 19.7815 -3.00948 -8.30515 24 2.5345e-15 -2.8625e-14 20 -1.47101e-14 -6.52014e-14 17.5874 -16.3693 -36.8406 -59.789 31.4446 -55.7767 27.8165 -48.4279 22.986 -15.0823 -11.0099 7.55808 -28.184 10.7294 -19.1592 9.96927e-15 -1.59028e-15 10 -1.29185e-14 0 10 -2.20695e-32 3.18055e-15 3.97569e-16 -19.9818 0.871897 -2.3964 -24 0 3.18055e-15 -20 0 -3.18055e-15 -2.20695e-32 3.18055e-15 3.97569e-16 -20 -3.18055e-15 8.74653e-15 -24 2.38542e-15 1.59028e-15 -20 -1.59028e-15 -6.36111e-15 -2.20695e-32 3.18055e-15 3.97569e-16 -19.9748 -1.02565 2.81938 -24 5.56597e-15 3.18055e-15 -20 1.19271e-15 -9.54166e-15 -2.20695e-32 3.18055e-15 3.97569e-16 -19.7815 -3.00948 8.30515 -24 4.77083e-15 -6.36111e-15 -20 -5.96354e-16 -1.11319e-14 
363.966 89.4436 203.052 24.5086 10.3911 -75.5841 -8.86909 -51.355 -5.17514 -3.54302 22.035 -14.7709 10.2369 6.40268 29.7157 13.4229 -42.0736 0.643954 -1.65076 35.0142 6.38251 -7.94797 -16.6463 -12.3052 -5.43552 15.4726 11.5905 -1.0617 3.81837 2.74826 -1.78646 6.04057 4.54314 -0.404978 -0.37147 -0.122313 -0.405496 -0.372347 -0.120331 -7.46042 -6.86822 -2.08185 1.27476 -13.4494 19.4553 85.5098 -0.518743 48.611 13.0734 -51.25 2.77371 19.9658 -14.4465 -11.9006 28.184 10.7294 19.1592 -1.61481e-15 0 -10 -1.27082e-14 1.19271e-15 -10 3.18055e-15 1.19271e-15 -6.26172e-15 19.9818 0.871897 2.3964 24 -1.40827e-14 -3.18055e-14 20 -1.55549e-13 -8.64117e-13 3.18055e-15 1.19271e-15 -6.26172e-15 20 -5.76476e-15 -1.37161e-14 24 -1.13866e-14 -3.27995e-14 20 -3.1408e-14 -2.09618e-13 3.18055e-15 1.19271e-15 -6.26172e-15 19.9748 -1.02565 -2.81938 24 1.13711e-14 -2.0276e-14 20 -3.95581e-14 -1.98387e-13 3.18055e-15 1.19271e-15 -6.26172e-15 19.7815 -3.00948 -8.30515 24 -3.83592e-15 -3.18055e-14 20 -6.36111e-15 -4.92986e-14 17.6121 -16.3564 -36.9524 -59.8926 31.52 -55.5568 27.5071 -47.8129 22.6154 -15.1121 -10.9252 7.57106 -28.184 10.7294 -19.1592 3.79044e-15 -3.18055e-15 10 -3.22962e-15 0 10 -3.18055e-15 0 -3.97569e-16 -19.9818 0.871897 -2.3964 -24 2.38542e-15 1.59028e-15 -20 1.98785e-15 6.36111e-15 -3.18055e-15 0 -3.97569e-16 -20 -1.59028e-15 3.97569e-15 -24 8.74653e-15 4.77083e-15 -20 -2.78299e-15 1.59028e-15 -3.18055e-15 0 -3.97569e-16 -19.9748 -1.02565 2.81938 -24 1.59028e-15 4.77083e-15 -20 -2.78299e-15 6.36111e-15 -3.18055e-15 0 -3.97569e-16 -19.7815 -3.00948 8.30515 -24 3.18055e-15 -0 -20 -9.54166e-15 1.59028e-15 
364.02 89.4436 203.255 24.4647 10.1982 -76.0464 -8.76718 -51.2385 -4.9854 -3.50034 21.7982 -14.5851 10.2257 6.55742 29.8618 12.947 -41.8514 -0.214935 -1.94692 35.0591 7.40758 -7.78073 -16.78 -12.0655 -5.33789 15.4481 11.4623 -1.04111 3.80597 2.72003 -1.7525 6.01968 4.4983 -0.417694 -0.37147 -0.108142 -0.418247 -0.372347 -0.106152 -7.67625 -6.80942 -1.83173 1.27386 -13.362 19.3943 85.7284 -0.651001 48.3399 13.9881 -51.6136 3.78153 19.3124 -13.4447 -12.8902 28.184 10.7294 19.1592 -9.13788e-16 3.97569e-15 -10 -2.78748e-14 6.75868e-15 -10 -3.18055e-15 3.27995e-15 -2.5842e-15 19.9818 0.871897 2.3964 24 -8.31168e-15 -3.77691e-14 20 -1.14898e-13 -6.45255e-13 -3.18055e-15 3.27995e-15 -2.5842e-15 20 6.60959e-15 -9.83984e-15 24 -1.69976e-14 -4.02539e-14 20 -1.60519e-14 -7.524e-14 -3.18055e-15 3.27995e-15 -2.5842e-15 19.9748 -1.02565 -2.81938 24 2.46928e-15 -2.62396e-14 20 -3.3197e-14 -2.10712e-13 -3.18055e-15 3.27995e-15 -2.5842e-15 19.7815 -3.00948 -8.30515 24 3.19298e-15 -3.65764e-14 20 -6.36111e-15 -4.13472e-14 17.6242 -16.3221 -37.0833 -59.9617 31.5961 -55.3619 27.2418 -47.1825 22.2641 -15.1756 -12.3743 7.36953 -28.184 10.7294 -19.1592 -8.56722e-15 -6.36111e-15 10 -5.89842e-15 -3.18055e-15 10 -4.77083e-15 0 7.95139e-16 -19.9818 0.871897 -2.3964 -24 7.95139e-16 -0 -20 -1.98785e-15 -6.36111e-15 -4.77083e-15 0 7.95139e-16 -20 -3.18055e-15 7.95139e-16 -24 6.36111e-15 -4.77083e-15 -20 -1.19271e-15 -1.27222e-14 -4.77083e-15 0 7.95139e-16 -19.9748 -1.02565 2.81938 -24 2.38542e-15 -1.59028e-15 -20 3.57812e-15 -7.95139e-15 -4.77083e-15 0 7.95139e-16 -19.7815 -3.00948 8.30515 -24 7.95139e-15 -1.59028e-15 -20 -1.19271e-15 -7.95139e-15 
364.066 89.4428 203.462 24.4092 10.0283 -76.4991 -8.64944 -51.1158 -4.8181 -3.47713 21.5142 -14.4365 10.2147 6.76974 30.0524 12.9236 -41.6433 -0.164548 -2.12739 35.1412 7.65731 -7.61276 -16.9246 -11.8197 -5.22164 15.4241 11.3253 -1.01613 3.79303 2.69074 -1.71138 5.99784 4.45225 -0.431126 -0.37147 -0.0939001 -0.431725 -0.372347 -0.091863 -7.90573 -6.75981 -1.57969 1.27238 -13.2812 19.3167 86.0058 -0.799233 48.0234 14.8122 -51.9278 4.76744 18.7495 -12.4227 -13.8982 28.184 10.7294 19.1592 1.48863e-14 -7.15625e-15 -10 -2.05695e-14 -6.75868e-15 -10 -3.18055e-15 2.28602e-15 -7.85199e-15 19.9818 0.871897 2.3964 24 -1.8122e-14 -4.73108e-14 20 -1.36167e-14 -1.07344e-13 -3.18055e-15 2.28602e-15 -7.85199e-15 20 -6.31141e-15 -1.75924e-14 24 -9.73268e-15 -4.48259e-14 20 -1.63848e-13 -8.99501e-13 -3.18055e-15 2.28602e-15 -7.85199e-15 19.9748 -1.02565 -2.81938 24 1.42255e-15 -4.09496e-14 20 -8.8658e-14 -4.67939e-13 -3.18055e-15 2.28602e-15 -7.85199e-15 19.7815 -3.00948 -8.30515 24 -9.08197e-15 -5.88403e-14 20 -2.34566e-14 -1.82087e-13 17.6282 -16.2847 -37.2147 -60.006 31.7253 -55.2235 27.0911 -46.5504 21.9985 -15.2465 -13.7646 7.19415 -28.184 10.7294 -19.1592 -3.51003e-15 1.59028e-15 10 -6.73965e-15 1.59028e-15 10 -3.18055e-15 3.18055e-15 3.57812e-15 -19.9818 0.871897 -2.3964 -24 9.54166e-15 -1.27222e-14 -20 3.97569e-16 -1.74931e-14 -3.18055e-15 3.18055e-15 3.57812e-15 -20 0 -2.38542e-15 -24 9.54166e-15 -2.22639e-14 -20 0 -3.65764e-14 -3.18055e-15 3.18055e-15 3.57812e-15 -19.9748 -1.02565 2.81938 -24 1.11319e-14 -2.22639e-14 -20 3.18055e-15 -2.8625e-14 -3.18055e-15 3.18055e-15 3.57812e-15 -19.7815 -3.00948 8.30515 -24 1.66979e-14 -2.22639e-14 -20 1.37161e-14 -4.29375e-14 
364.11 89.4403 203.663 24.4104 10.0323 -76.4887 -8.65034 -51.1191 -4.81867 -3.52685 21.3348 -14.6628 10.1972 6.98566 30.2492 12.6403 -41.6311 -0.739525 -2.30225 35.2382 7.91717 -7.44374 -17.0885 -11.5549 -4.90033 15.3616 10.8774 -0.948548 3.76742 2.59201 -1.60081 5.96043 4.29589 -0.454608 -0.36578 -0.064432 -0.455299 -0.36635 -0.0623625 -8.30286 -6.6305 -1.05927 1.27033 -13.1938 19.2236 86.3371 -0.9692 47.7276 15.608 -52.1647 5.77902 18.8942 -12.6798 -13.4579 28.184 10.7294 19.1592 -1.17968e-14 6.36111e-15 -10 -2.94897e-14 6.75868e-15 -10 6.36111e-15 9.93923e-16 -1.98785e-16 19.9818 0.871897 2.3964 24 -8.53532e-15 -1.27222e-14 20 -1.72148e-13 -9.90345e-13 6.36111e-15 9.93923e-16 -1.98785e-16 20 5.31749e-15 -3.47873e-15 24 5.23673e-15 -1.2921e-14 20 -5.0044e-14 -3.12291e-13 6.36111e-15 9.93923e-16 -1.98785e-16 19.9748 -1.02565 -2.81938 24 7.65942e-15 -5.1684e-15 20 -1.51076e-14 -5.18828e-14 6.36111e-15 9.93923e-16 -1.98785e-16 19.7815 -3.00948 -8.30515 24 9.86469e-15 -2.46493e-14 20 -7.95139e-16 -4.45278e-14 17.6321 -16.2472 -37.3503 -60.1125 31.7752 -55.0211 26.8411 -45.8253 21.6127 -15.1091 -10.1894 7.64969 -28.184 10.7294 -19.1592 4.63166e-15 -7.95139e-15 10 -5.3376e-15 -6.36111e-15 10 1.59028e-15 7.95139e-16 5.96354e-16 -19.9818 0.871897 -2.3964 -24 3.18055e-15 -7.95139e-15 -20 2.78299e-15 -8.74653e-15 1.59028e-15 7.95139e-16 5.96354e-16 -20 -2.38542e-15 -5.1684e-15 -24 5.1684e-15 -1.11319e-14 -20 2.5842e-15 -1.43125e-14 1.59028e-15 7.95139e-16 5.96354e-16 -19.9748 -1.02565 2.81938 -24 3.57812e-15 -1.51076e-14 -20 4.77083e-15 -1.43125e-14 1.59028e-15 7.95139e-16 5.96354e-16 -19.7815 -3.00948 8.30515 -24 3.18055e-15 -5.96354e-15 -20 5.1684e-15 -1.47101e-14 
